<!--?xml version="1.0" encoding="utf-8"?-->
<!-- Generator: Adobe Illustrator 19.1.1, SVG Export Plug-In . SVG Version: 6.00 Build 0)  -->
<svg version="1.1" id="_x31_0" xmlns="http://www.w3.org/2000/svg" xmlns:xlink="http://www.w3.org/1999/xlink" x="0px" y="0px" viewBox="0 0 512 512" style="width: 48px; height: 48px; opacity: 1;" xml:space="preserve">
<style type="text/css">
	.st0{fill:#374149;}
</style>
<g>
	<path class="st0" d="M284.246,215.191c-0.008-0.164-0.098-0.316-0.18-0.394c-4.488-6.59-13.297-8.238-19.809-3.754
		c-3.488,2.332-5.558,5.874-6.015,9.586c-0.626,3.554,0.187,7.118,2.262,10.219c4.484,6.511,13.301,8.242,19.805,3.758
		C286.746,230.285,288.406,221.633,284.246,215.191z M272.691,211.117c1.859-0.312,3.828,0.414,4.969,2.07
		c0.606,0.934,0.898,1.962,0.79,3.004c-0.012,1.446-0.738,2.922-2.059,3.786c-2.246,1.554-5.316,0.98-6.867-1.184
		c-0.09-0.234-0.262-0.469-0.355-0.703c-0.985-2.113-0.39-4.785,1.617-6.246c0.477-0.313,0.997-0.481,1.524-0.614
		C272.438,211.195,272.558,211.137,272.691,211.117z" style="fill: rgb(223, 86, 86);"></path>
	<path class="st0" d="M225.844,297.406c1.679,2.324,3.598,4.859,5.621,7.141c1.91,2.254,3.961,4.422,6.102,6.336
		c4.106,3.953,8.606,6.976,12.558,9.339c7.938,4.622,14.102,5.95,14.102,5.95l3.168-9.098c0,0-1.172-0.61-3.222-1.555
		c-2.051-0.945-4.859-2.598-8.066-4.812c-3.266-2.18-6.73-5.066-10.207-8.512c-1.801-1.676-3.5-3.61-5.129-5.586
		c-1.695-1.946-3.094-3.993-4.687-6.188c-5.997-8.652-9.887-18.476-11.574-26.046c-0.894-3.793-1.406-7.008-1.555-9.157
		c-0.218-2.098-0.234-3.773-0.234-3.773l-9.671-0.157c0.038,0.062-0.223,1.184-0.258,4.016c-0.078,2.774-0.078,6.625,0.676,11.168
		C214.703,275.57,219.058,287.317,225.844,297.406z" style="fill: rgb(223, 86, 86);"></path>
	<path class="st0" d="M420.641,60c-1.68-1.442-3.359-2.879-5.122-4.238C371.68,20.879,316.238,0,256,0C114.641,0,0,114.641,0,256
		c0,21.762,2.718,42.801,7.84,62.961c5.121,20.321,12.718,39.758,22.398,57.84c0.242,0.481,0.48,0.879,0.722,1.359
		c0.719,1.282,1.438,2.558,2.156,3.84c0.801,1.442,1.602,2.879,2.481,4.32c4.16,7.039,8.722,13.918,13.519,20.559h0.082
		c0.398,0.562,0.801,1.038,1.199,1.602c0.641,0.878,1.359,1.839,2.082,2.718c1.515,1.969,3.23,3.778,4.797,5.707
		c1.874,2.305,3.773,4.566,5.703,6.781c3.027,3.485,6.144,6.871,9.355,10.184c2.523,2.594,5.074,5.11,7.66,7.546
		c1.527,1.438,2.914,3.024,4.485,4.422c8.718,8,18,15.281,27.758,21.922C153.199,495.68,202.718,512,256,512
		c141.359,0,256-114.641,256-256C512,177.359,476.481,106.961,420.641,60z M77.496,326.191c-0.961-2.434-1.969-4.843-2.832-7.316
		l4.371-2.481c0.386-0.262,0.859-0.442,1.25-0.625c0.938-0.523,1.875-0.969,2.895-1.418c0.546-0.266,1.179-0.461,1.648-0.722
		c0.859-0.363,1.719-0.805,2.422-1.242c1.406-0.629,2.82-1.258,4.16-1.726c0.855-0.438,1.726-0.726,2.668-1.086l1.648-0.645
		c4.398-1.82,8.813-3.238,13.23-4.652l2.993-1.027l3.16-0.879c4.426-1.258,8.926-2.598,13.523-3.625
		c8.078-1.836,16.164-3.516,24.184-4.95c16.171-11.606,30.66-21.606,37.246-26.094c10.742-8.054,16.047-25.618,25.973-32.27
		c7.082-4.023,16.145-7.32,24.707-9.957c1.336-0.394,2.582-0.801,3.984-1.184c0.246,4.859,1.844,9.738,4.774,14.062
		c8.625,12.555,25.848,15.875,38.402,7.25c10.214-7.008,14.137-19.758,10.625-31.035c-0.156-0.527-0.246-1.062-0.434-1.586
		c5.641-0.754,10.821-1.25,15.195-1.702c5.485-0.426,9.782-0.871,13.031-1.114c0.07,0.004,0.141,0.004,0.207,0.004l-2.199,13.945
		c-0.61,3.875,2.282,7.254,6.203,7.223l12.516-0.031l3.015,0.031l-0.262,1.015c-12.359,43.618-25.074,79.962-61.386,116.989
		c-2.516,2.602-5.274,5.222-8.114,7.766c-11.176,10.558-24.355,21.054-40.086,31.84l-1.395,0.945
		c-6.434,4.406-12.882,8.485-19.102,12.313c-13.918,8.531-27.426,15.679-40.578,21.934c-2.086,0.98-4.086,1.762-6.153,2.687
		c-2.621-1.347-5.328-2.566-7.871-4.027c-13.519-7.762-26.078-17.039-37.359-27.762c-1.519-1.438-2.957-2.879-4.398-4.321
		c-0.32-0.316-0.641-0.636-0.961-1.038c-6.558-6.641-12.481-13.84-18-21.36c-0.953-1.273-1.82-2.57-2.676-3.882
		c4.25,1.515,8.531,3,12.914,4.34c4.754,1.343,9.672,2.492,14.558,3.473c5.012,0.894,10.137,1.531,15.242,1.886
		c5.27,0.152,10.5,0.25,15.813-0.473c5.238-0.574,10.534-1.754,15.542-3.477c5.082-1.519,9.75-3.773,14.258-6.285l0.012-0.008l0,0
		c0.047-0.023,0.098-0.046,0.145-0.07l-8.387-16.41c-1.922,0.754-3.808,1.566-5.706,2.21c-1.993,0.52-3.817,1.286-5.829,1.629
		c-3.922,0.989-7.87,1.528-11.902,1.653c-3.954,0.254-8.106,0.086-12.211-0.301c-4.09-0.492-8.238-1.215-12.355-2.168
		c-4.153-1.004-8.278-2.23-12.434-3.523c-4.196-1.348-8.387-2.805-12.532-4.481c-1.242-0.488-2.554-1.07-3.847-1.621l-0.394-0.242
		c2.07-1.035,4.324-1.934,6.519-2.782c9.195-3.832,18.957-6.836,28.832-9.546c9.898-2.809,19.946-5.258,30.149-7.34
		c5.062-1.11,10.16-2.156,15.246-3.086l7.614-1.344l3.582-0.664c0,0,0.039,0.058,0.102,0.015c0.063-0.039,0-0.274,0.196-0.406
		c0.129-0.09,0.535-0.175,1.266-0.21l3.199-18.122c-0.73,0.031-4.086-0.21-6.34-0.082l-4.356,0.347l-8.113,0.75
		c-5.41,0.598-10.77,1.25-16.156,2.019c-8.153,1.25-16.364,2.813-24.551,4.559c-2.488,0.48-4.992,1.062-7.508,1.648
		c-5.289,1.176-10.621,2.844-15.906,4.293c-5.29,1.73-10.559,3.356-15.821,5.539c-2.594,1.012-5.289,2.008-7.918,3.238
		c-2.59,1.301-5.176,2.313-7.848,3.754l-1.191,0.727l-3.738,2.117L77.496,326.191z M68.266,296.238
		c-0.82-3.801-1.55-7.633-2.129-11.516c1.676-2.633,3.305-5.301,5.114-7.832c0.898-1.328,1.797-2.574,2.695-3.816l8.894,1.258
		l5.301,0.844c-4.782,4.777-9.707,9.961-14.699,15.382c-1.477,1.586-2.965,3.309-4.446,4.977L68.266,296.238z M408.961,372
		c0,0-0.082,0-0.082,0.082c-1.598,2.156-3.282,4.238-5.039,6.32c-10,12.078-21.52,22.879-34.16,32.238
		c-0.962,0.718-1.922,1.359-2.879,2.078c-0.242,0.161-0.481,0.321-0.722,0.481c-23.848,16.738-51.844,28.078-82.008,32.516
		c-5.793,0.824-11.625,1.476-17.52,1.766c0.176-0.258,0.348-0.516,0.528-0.774l1.195-1.742c0.078-0.082,0.156-0.168,0.152-0.25
		c1.274-1.742,2.383-3.637,3.41-5.61l0.656-1.234c2.226-3.554,4.047-7.328,5.793-10.938l1.379-2.871
		c2.246-4.918,4.254-9.656,6.023-14.39c3.398-9.137,6.528-18.824,9.172-28.645c0.402-1.621,0.805-3.164,1.203-4.785
		c47.547-44.782,62.633-88.29,76.211-136.535l5.93-21.195c1.023-3.574,0.285-7.223-1.938-10.078
		c-2.149-2.938-5.512-4.614-9.117-4.598l-10.41,0.023l-1.52-0.019l1.962-12.25c0.484-3.23-0.402-6.55-2.531-9.09
		c-2.126-2.535-5.242-4.066-8.532-4.145l-18.773-0.602c-35.618-1.137-65.649,0.574-91.922,5.469l-131.918-27.82
		c-2.512-0.516-5.066-0.39-7.352,0.359c-1.714,0.539-3.25,1.5-4.656,2.629c-0.457,0.317-0.922,0.606-1.359,0.958
		c1.676-2.875,3.418-5.703,5.222-8.469C129.758,98.558,188.961,64,256,64c56.961,0,108.238,24.961,143.359,64.481l-6.32,30.48
		c-0.641,2.879-2.321,5.442-4.879,7.039c-1.84,1.199-4,1.84-6.16,1.84c-0.801,0-1.602-0.078-2.32-0.238
		c-2.962-0.562-5.52-2.32-7.199-4.883c-0.856-1.378-1.348-2.87-1.574-4.374c-0.039-0.406-0.149-0.782-0.137-1.211l4.031,0.867h0.238
		c0.878,0,1.679-0.398,2.242-1.039c0.476-0.722,0.718-1.519,0.558-2.402l-2.879-13.359l-1.207-5.867l-0.386-2.16l-0.05,0.035
		l-0.035-0.168l-3.684,2.402c-5.438,3.598-9.199,8.878-10.558,14.878c-1.758,7.84,0.398,15.68,5.84,21.598
		c2.64,2.723,5.839,4.801,9.441,6.082c2.559,0.879,5.199,1.282,7.918,1.282c4.562,0,9.043-1.282,12.961-3.84
		c5.282-3.524,8.961-8.801,10.238-15.039l2.48-11.906l1.684-7.582C433.707,172.973,448,212.851,448,256
		c0,38.961-11.68,75.282-31.68,105.519C414,365.121,411.519,368.558,408.961,372z M245.918,429.422
		c-0.202,0.238-0.351,0.469-0.582,0.707c-1.699-5.41-3.394-10.82-4.691-16.168c2.406-1.558,4.886-3.203,7.293-4.844
		c4.625-3.171,9.09-6.262,13.246-9.418l0.016,0.102c-0.023,0.078-0.043,0.156-0.09,0.262c-3.672,8.43-7.43,16.782-12.024,24.297
		C248.07,426.09,247.106,427.855,245.918,429.422z M205.359,441.199c-0.5-0.133-0.984-0.305-1.48-0.457l-0.192-0.126
		c1.918-1.003,3.825-1.972,5.758-3.023c2.808-1.496,5.617-3.074,8.496-4.738c0.683,2.45,1.442,4.895,2.289,7.496
		c0.414,1.298,0.894,2.699,1.355,4.07l0.078,0.414C216.156,443.832,210.691,442.676,205.359,441.199z M103.062,237.93
		c0.504-0.558,1.016-1.125,1.598-1.683c2.598-2.614,5.266-5.305,7.942-7.922c2.762-2.457,5.68-5.082,8.133-7.285l0.386-0.262
		c1.078-0.93,1.985-2.098,2.562-3.328l15.634,2.293l12.046,1.894c-1.805,1.106-3.539,2.347-5.199,3.442
		c-2.094,1.386-4.106,2.843-6.039,4.222l-6.359,4.316l-0.614,0.512c-0.542,0.426-3.621,2.898-8.546,7.066l-14.07-2.074
		L103.062,237.93z M124.355,209.484c0-0.027-0.023-0.054-0.023-0.074l-8.414-26.18l42.989,8.16l36.586,7.086
		c-12.949,5.019-24.054,10.738-34.031,16.722l-15.438-2.282L124.355,209.484z M79.176,265.867
		c3.289-4.465,6.672-8.617,10.285-12.938c2.352-2.679,4.703-5.355,7.137-7.961l12.286,1.778l7.867,1.238
		c-5.274,4.738-11.598,10.535-18.594,17.336c-0.148,0.246-0.457,0.422-0.609,0.59c-0.848,0.683-1.692,1.523-2.446,2.359
		l-10.992-1.61L79.176,265.867z M279.774,241.215c-1.078,0.434-2.176,0.762-3.29,0.996c-0.332,0.07-0.671,0.098-1.007,0.152
		c-7.371,1.16-15.098-1.828-19.547-8.406c-2.496-3.562-3.5-7.758-3.465-11.843c0.129-5.618,2.824-11.035,7.367-14.778
		c0.465-0.344,0.851-0.606,1.234-0.946c6.438-4.32,14.598-4.476,20.95-0.785c2.55,1.398,4.894,3.445,6.621,6.004
		c0.602,0.851,1.121,1.707,1.488,2.566c4.27,8.687,1.594,19.469-6.621,25.078c-0.95,0.641-1.95,1.137-2.961,1.594
		C280.282,240.965,280.035,241.11,279.774,241.215z M64.598,241.102c0.359-4.574,0.867-9.11,1.562-13.582
		c3.039-20.878,9.52-40.558,18.801-58.64c0.387-0.774,0.828-1.508,1.226-2.27c-0.426,2.574-0.316,4.886,0.278,7.172l0.184,0.469
		l0.175,0.394l9.863,32.918l-1.762,1.606c-3.066,2.797-5.973,5.582-8.882,8.367c-4.434,4.379-10.078,10.102-15.305,16.207
		c-0.535,0.59-0.985,1.172-1.516,1.754c-1.461,1.656-2.777,3.469-4.175,5.199C64.898,240.832,64.762,240.973,64.598,241.102z" style="fill: rgb(223, 86, 86);"></path>
</g>
</svg>
