<!--?xml version="1.0" encoding="utf-8"?-->
<!-- Generator: Adobe Illustrator 18.1.1, SVG Export Plug-In . SVG Version: 6.00 Build 0)  -->

<svg version="1.1" id="_x31_0" xmlns="http://www.w3.org/2000/svg" xmlns:xlink="http://www.w3.org/1999/xlink" x="0px" y="0px" viewBox="0 0 512 512" style="width: 128px; height: 128px; opacity: 1;" xml:space="preserve">
<style type="text/css">
	.st0{fill:#374149;}
</style>
<g>
	<path class="st0" d="M511.917,455.262c-0.082-4.239-1.442-103.313-30.49-185.177c-28.97-81.943-62.57-155.758-130.77-208.114
		c-33.01-25.343-70.733-28.598-107.865-28.598c-56.174,0-89.226,29.77-90.504,30.33c-24.008,1.524-73.945,9.206-96.111,14.645
		C36.464,83.274,19.826,91.046,9.882,96.329c-8.221,4.365-12.277,14.348-8.401,22.811c1.81,3.958,5.193,7.276,11.086,8.425
		c11.042,2.157,77.703,16.243,96.029,19.686c24.805,4.638,42.251,8.241,57.538,29.927c-1.442,2.238-2.962,4.72-4.564,7.443
		c-3.278,5.439-6.803,11.523-10.562,18.404c-0.321,0.641-0.719,1.2-1.04,1.922c-11.026,20.295-23.331,46.542-33.217,76.699
		c-0.121,0.36-0.238,0.719-0.356,1.078c-1.875,5.775-3.63,11.679-5.294,17.736c-0.187,0.684-0.367,1.368-0.55,2.055
		c-1.54,5.725-2.958,11.539-4.259,17.49c-0.114,0.532-0.215,1.059-0.325,1.59c-2.547,11.914-4.708,24.144-6.014,36.835
		c-4.642,44.096-4.083,95.232-4.001,97.311l0.082,7.959c0.086,8.268,6.815,14.926,15.083,14.926h385.801
		c8.389,0,15.168-6.85,15.082-15.238L511.917,455.262z M155.489,138.286c-17.205-9.284-34.413-11.206-49.617-14.004
		c-4.88-0.962-10.882-1.922-17.446-2.802c-2.157-0.321-4.4-0.641-6.639-0.962c-1.68-0.238-3.364-0.398-5.122-0.641
		c-7.975-1.11-16.208-2.165-24.21-3.258c-1.122-0.191-2.254-0.363-3.368-0.586c11.386-2.829,55.462-12.578,85.518-5.678
		C164.132,117.159,160.447,131.644,155.489,138.286z M206.062,118.281c0-7.206,5.842-13.043,13.126-13.043
		c7.201,0,13.042,5.838,13.042,13.043c0,7.201-5.842,13.042-13.042,13.042C211.904,131.323,206.062,125.482,206.062,118.281z
		 M189.499,206.788c13.043,10.319,33.37,20.885,51.613,30.49c8.643,4.478,16.728,8.722,22.327,12.082
		c25.129,15.126,67.224,40.333,89.386,103.954c11.848,33.846,12.246,65.379,12.566,90.746c0,1.199,0.078,2.321,0.078,3.438H142.184
		c-8.62,0-15.544-7.026-15.497-15.646c0.078-12.668,0.614-29.642,2.313-48.772c1.039-14.966,2.321-27.368,5.603-46.815
		C142.922,286.57,175.655,229.275,189.499,206.788z M266.237,190.818c0.024-0.203,0.074-0.41,0.242-0.598
		c9.124-9.921,20.088-27.286,15.048-34.647c-8.643-12.406-15.364-27.61-9.522-41.774c7.041-17.126,32.248-24.246,49.452-12.484
		c7.065,4.877,11.539,11.538,13.398,18.935c0.016,0.063,0.024,0.126,0.039,0.188c3.029,12.336-1.184,26.691-12.797,38.254
		c-8.963,8.964-41.372,25.687-54.337,33.131c-0.762,0.41-1.512-0.176-1.547-0.86C266.214,190.912,266.233,190.869,266.237,190.818z" style="fill: rgb(255, 255, 255);"></path>
</g>
</svg>
